<?xml version="1.0" standalone="no"?>
<!DOCTYPE svg PUBLIC "-//W3C//DTD SVG 20010904//EN"
 "http://www.w3.org/TR/2001/REC-SVG-20010904/DTD/svg10.dtd">
<svg version="1.0" xmlns="http://www.w3.org/2000/svg"
 width="80pt" height="80pt" viewBox="0 0 369.000000 338.000000"
 preserveAspectRatio="xMidYMid meet">

<g transform="translate(0.000000,338.000000) scale(0.100000,-0.100000)"
fill="#000000" stroke="none">
<path d="M1290 3314 c-52 -30 -96 -59 -98 -64 -2 -5 -19 -14 -38 -20 -19 -6
-34 -16 -34 -21 0 -5 -7 -9 -15 -9 -18 0 -92 -36 -97 -47 -1 -5 -34 -23 -73
-41 -38 -19 -84 -43 -102 -55 l-32 -21 0 -260 c-1 -143 -3 -261 -6 -264 -2 -2
-88 19 -190 47 l-187 51 -204 -116 -205 -116 3 -588 c2 -323 0 -586 -4 -583
-5 2 -8 -3 -8 -12 0 -9 3 -14 8 -12 4 3 7 -41 7 -98 0 -57 -4 -101 -9 -98 -5
3 -6 -48 -3 -118 4 -68 6 -201 6 -296 0 -169 0 -172 23 -186 13 -8 33 -18 46
-22 l23 -7 -2 429 c-1 235 -1 678 0 984 l1 555 154 87 c85 48 157 87 160 87 3
0 6 -513 6 -1141 l0 -1141 22 5 c13 3 109 22 213 41 105 20 200 38 213 41 l22
5 0 1343 c-1 1276 0 1342 17 1352 10 5 29 16 43 25 14 8 27 15 30 15 22 4 89
40 121 66 21 17 39 28 39 24 0 -7 156 76 210 112 19 12 37 23 40 23 3 0 4
-736 2 -1635 -2 -899 -2 -1635 0 -1635 8 0 695 141 710 146 17 5 18 78 20
1302 l3 1297 190 102 190 101 3 -1359 c1 -747 5 -1359 8 -1359 13 0 498 101
501 104 2 2 5 504 6 1116 l2 1114 135 72 c74 40 136 71 137 70 2 -1 3 -523 4
-1159 0 -636 2 -1157 5 -1157 4 0 325 67 362 75 l22 5 -2 1112 -3 1112 -40 12
c-22 6 -108 32 -191 56 l-151 45 -133 -73 c-73 -41 -137 -74 -141 -74 -5 0
-10 53 -11 117 l-3 117 -245 73 c-135 40 -251 73 -259 73 -7 0 -98 -47 -202
-104 l-189 -104 0 164 c0 103 -4 164 -10 164 -17 0 -19 0 -62 16 -24 9 -56 18
-73 21 -16 3 -42 11 -57 19 -15 8 -40 16 -55 18 -16 1 -62 15 -103 29 -106 37
-343 107 -361 107 -8 -1 -57 -26 -109 -56z m328 -220 c19 -3 48 -10 65 -18
l32 -13 0 -111 0 -112 -30 5 c-54 10 -120 28 -126 34 -4 3 -10 57 -13 120 l-7
114 23 -7 c13 -4 38 -10 56 -12z m301 -85 c87 -19 81 -9 81 -125 0 -92 -2
-104 -17 -104 -21 0 -123 27 -130 33 -2 3 -5 53 -6 111 -2 88 0 105 12 101 8
-3 35 -10 60 -16z m760 -201 l51 -11 0 -94 0 -94 -37 7 c-84 15 -83 13 -83
114 0 49 4 90 9 90 5 0 32 -5 60 -12z m221 -58 c24 -6 25 -10 28 -98 l3 -93
-28 7 c-85 21 -78 11 -81 113 l-3 92 28 -7 c15 -4 39 -10 53 -14z m-1280 -29
c19 -5 47 -12 63 -15 l27 -6 0 -111 0 -111 -29 5 c-15 3 -51 9 -80 13 l-51 7
0 113 c0 126 -2 123 70 105z m290 -61 c101 -22 90 -7 90 -126 l0 -106 -32 6
c-18 4 -52 9 -75 13 l-43 6 0 108 c0 60 3 109 8 109 4 0 27 -5 52 -10z m1523
-51 l37 -10 0 -80 0 -80 -37 7 c-21 4 -41 9 -45 11 -5 2 -8 40 -8 84 0 43 3
79 8 79 4 0 24 -5 45 -11z m165 -44 c20 -6 22 -12 22 -85 l0 -78 -40 10 -40
10 0 80 c0 86 -5 81 58 63z m-882 -72 c11 -4 14 -29 14 -100 0 -77 -3 -94 -14
-90 -7 3 -34 9 -60 12 l-46 7 0 95 0 95 46 -7 c26 -3 53 -9 60 -12z m163 -34
l50 -10 3 -90 3 -90 -50 7 c-27 3 -53 8 -58 11 -7 4 -9 183 -1 183 2 0 25 -5
53 -11z m-2276 -55 c14 -5 17 -18 17 -86 l0 -80 -26 6 c-15 4 -39 10 -55 13
l-29 6 0 79 0 80 38 -6 c20 -4 45 -9 55 -12z m205 -128 l3 -77 -38 7 c-67 12
-68 14 -65 97 l3 75 47 -12 47 -12 3 -78z m839 73 l63 -11 0 -110 0 -111 -52
7 c-29 3 -65 6 -80 6 l-28 0 0 115 c0 131 -8 122 97 104z m1821 -13 c1 -2 2
-39 0 -83 l-3 -79 -42 9 -43 8 0 81 0 81 42 -7 c23 -4 44 -8 46 -10z m-1518
-34 l45 -8 3 -108 c2 -99 1 -107 -15 -103 -10 3 -44 8 -75 12 l-58 6 0 109 0
110 28 -6 c15 -3 47 -8 72 -12z m1639 12 l31 -6 0 -79 c0 -44 -4 -79 -9 -79
-5 0 -23 3 -40 6 l-31 7 0 78 c0 44 4 79 9 79 5 0 23 -3 40 -6z m-905 -120
l46 -7 0 -95 0 -95 -46 7 c-26 3 -53 6 -60 6 -11 0 -14 22 -14 95 0 105 -5 99
74 89z m229 -34 c15 0 17 -11 17 -93 l0 -94 -32 4 c-83 10 -78 4 -78 104 l0
92 38 -7 c20 -3 45 -6 55 -6z m-2310 -17 c14 -4 17 -17 17 -84 l0 -80 -37 6
c-76 13 -73 9 -73 96 l0 80 38 -6 c20 -4 45 -9 55 -12z m200 -40 c4 -2 7 -38
7 -78 l0 -75 -47 7 c-27 3 -50 7 -51 9 -2 1 -5 37 -5 79 l-2 77 45 -7 c25 -4
48 -9 53 -12z m2638 -23 l29 0 0 -86 c0 -85 0 -86 -22 -80 -13 3 -33 6 -45 6
-22 0 -23 4 -23 86 0 74 2 85 16 80 9 -3 29 -6 45 -6z m163 -26 c13 -5 16 -22
16 -83 l0 -77 -40 4 -40 4 0 79 c0 77 1 79 24 79 13 0 31 -3 40 -6z m-1921
-74 l27 0 0 -116 c0 -102 -2 -115 -16 -110 -9 3 -45 6 -80 6 l-64 0 0 116 0
117 53 -7 c28 -3 64 -6 80 -6z m271 -26 l46 -7 0 -103 0 -104 -52 0 c-100 0
-98 -2 -98 116 l0 104 29 0 c15 0 49 -3 75 -6z m-1356 -70 c21 -4 22 -9 22
-85 0 -79 -1 -81 -22 -75 -13 3 -38 6 -55 6 l-33 0 0 85 0 85 33 -6 c17 -3 42
-7 55 -10z m2101 0 l31 -6 0 -95 c0 -94 0 -95 -22 -89 -13 3 -40 6 -60 6 l-38
0 0 95 0 95 29 0 c16 0 43 -3 60 -6z m-1901 -29 c8 -3 12 -28 12 -81 0 -74 -1
-76 -22 -70 -13 3 -35 6 -50 6 l-28 0 0 80 0 81 38 -6 c20 -4 43 -8 50 -10z
m2108 9 l29 -5 -3 -90 c-4 -98 -1 -95 -74 -83 l-38 7 0 88 0 89 29 0 c16 0 41
-3 57 -6z m533 -50 l31 -6 0 -80 0 -79 -42 3 -43 3 -3 83 c-3 89 -4 88 57 76z
m181 -94 l0 -80 -40 0 -40 0 0 80 0 80 40 0 40 0 0 -80z m-3016 -96 c13 -5 16
-22 16 -86 l0 -80 -31 6 c-17 3 -42 6 -55 6 -23 0 -24 2 -24 80 l0 80 39 0
c22 0 46 -3 55 -6z m204 -88 c2 -38 -1 -72 -5 -77 -4 -4 -28 -5 -53 -2 l-45 5
2 77 c1 42 2 76 3 76 0 1 21 -2 48 -5 l47 -5 3 -69z m902 -31 l0 -115 -80 0
-80 0 0 115 0 115 80 0 80 0 0 -115z m238 98 l53 -6 -3 -101 -3 -101 -72 -3
-73 -3 0 111 c0 125 -8 116 98 103z m782 -118 l0 -95 -60 0 -60 0 0 95 0 95
60 0 60 0 0 -95z m200 -5 l0 -90 -55 0 -55 0 0 90 0 90 55 0 55 0 0 -90z m540
-10 l0 -80 -45 0 -45 0 0 80 0 80 45 0 45 0 0 -80z m119 74 l31 -6 0 -74 0
-74 -40 0 -40 0 0 80 c0 44 4 80 9 80 5 0 23 -3 40 -6z m-2971 -261 l3 -82
-53 2 -53 3 -3 83 -3 82 53 -3 53 -3 3 -82z m190 0 l-3 -78 -47 -3 -48 -3 0
80 0 81 50 0 51 0 -3 -77z m2662 -84 l0 -79 -45 0 -45 0 0 79 0 80 38 3 c20 2
40 2 45 0 4 -2 7 -39 7 -83z m160 11 l0 -80 -44 0 c-25 0 -48 5 -51 10 -3 6
-3 42 1 80 l7 70 43 0 44 0 0 -80z m-925 60 c18 0 23 -7 28 -37 4 -20 4 -62 0
-94 -5 -54 -7 -57 -37 -62 -18 -3 -44 -3 -59 0 l-27 5 0 93 c0 89 1 94 23 98
12 2 28 3 35 1 8 -2 24 -4 37 -4z m229 -45 c3 -27 2 -68 -2 -90 l-7 -40 -53
-3 -52 -3 0 89 c0 49 3 91 6 95 3 3 28 5 54 4 l48 -2 6 -50z m-939 -75 l0
-105 -72 -3 -73 -4 0 105 c0 57 3 107 7 111 4 4 37 6 73 4 l65 -3 0 -105z
m-285 -10 l0 -110 -27 0 c-16 0 -52 -3 -80 -6 l-53 -7 0 117 0 116 80 0 80 0
0 -110z m-1090 -113 l0 -82 -55 -3 -55 -3 0 80 c0 88 -3 85 83 90 l27 1 0 -83z
m188 9 c3 -78 -2 -86 -60 -86 l-38 0 0 81 0 80 48 -3 47 -3 3 -69z m2818 -73
c-6 -81 -14 -93 -57 -93 -25 0 -27 3 -33 61 -10 100 -11 97 37 102 23 2 46 4
51 5 5 1 6 -31 2 -75z m-156 -23 c0 -76 -1 -80 -22 -80 -13 0 -33 -3 -45 -6
-23 -6 -23 -5 -23 80 l0 86 45 0 45 0 0 -80z m-536 -42 l-4 -93 -42 -7 c-24
-5 -47 -7 -52 -5 -5 2 -9 44 -10 94 l-1 92 45 4 c25 2 50 4 57 5 8 1 10 -24 7
-90z m-202 -2 c6 -116 4 -122 -50 -125 -25 -1 -50 -3 -56 -4 -7 -1 -12 32 -14
95 -3 108 -6 104 80 104 l36 -1 4 -69z m-732 -91 c0 -93 -2 -105 -17 -106 -10
0 -44 -4 -75 -8 l-58 -7 0 107 0 108 33 4 c17 2 51 5 75 5 l42 2 0 -105z
m-290 -25 l0 -109 -32 -5 c-18 -3 -54 -8 -80 -11 l-48 -6 0 115 0 115 48 4
c26 2 62 4 80 5 l32 2 0 -110z m-900 6 c0 -81 -4 -86 -66 -86 l-34 0 0 74 c0
81 1 82 68 85 l32 1 0 -74z m-190 -15 c0 -87 -3 -91 -77 -91 l-33 0 0 79 0 80
43 4 c23 2 48 4 55 5 9 2 12 -20 12 -77z m3004 -63 c-3 -46 -7 -84 -8 -84 0
-1 -18 -4 -38 -8 l-38 -7 -1 43 c0 24 -2 62 -5 85 -3 31 -1 41 9 38 6 -3 26
-1 42 4 17 5 34 10 38 10 5 1 5 -36 1 -81z m-153 39 c3 -57 -5 -143 -14 -149
-7 -4 -27 -8 -44 -8 l-33 0 0 79 c0 45 4 81 10 83 30 9 80 7 81 -5z m-541
-146 c0 -98 4 -93 -72 -105 l-37 -7 2 93 2 93 40 6 c22 3 46 7 53 8 9 1 12
-23 12 -88z m-200 -36 c0 -73 -3 -95 -14 -95 -7 0 -34 -3 -60 -6 l-46 -7 0 96
0 96 33 4 c17 2 44 5 60 5 l27 2 0 -95z m-1920 -30 c0 -69 -2 -75 -22 -80 -50
-11 -83 -10 -82 3 1 6 2 41 3 76 1 62 2 65 29 69 75 11 72 15 72 -68z m-190
-25 c0 -88 6 -80 -78 -94 l-33 -6 3 83 3 82 40 6 c22 3 46 7 53 8 9 1 12 -21
12 -79z m1380 -54 l0 -104 -47 -6 c-27 -4 -60 -9 -75 -12 l-28 -6 0 110 0 110
68 9 c37 5 70 7 75 5 4 -2 7 -50 7 -106z m-290 -40 l0 -113 -47 -6 c-27 -3
-63 -9 -80 -13 l-33 -6 0 115 0 115 68 9 c37 6 73 11 80 12 9 1 12 -28 12
-113z"/>
</g>
</svg>
