<svg xml:space="preserve" width="96" height="96" style="width:100%;height:100%;background-size:initial;background-repeat-y:initial;background-repeat-x:initial;background-position-y:initial;background-position-x:initial;background-origin:initial;background-color:initial;background-clip:initial;background-attachment:initial;animation-play-state:paused" viewBox="0 0 100 100"><g class="ldl-scale" style="transform-origin:50% 50%;transform:rotate(0deg) scale(.8,.8);animation-play-state:paused"><linearGradient id="a" x1="36.618" x2="51.618" y1="37.807" y2="85.807" gradientUnits="userSpaceOnUse" style="animation-play-state:paused"><stop offset="0" stop-color="#e15c64" style="stop-color:#5699d2;fill:#4996a2;animation-play-state:paused"/><stop offset="1" stop-color="#b0484f" style="stop-color:#d8ebf9;fill:#4996a2;animation-play-state:paused"/></linearGradient><path fill="url(#a)" stroke="#323232" stroke-miterlimit="10" stroke-width="3.5" d="M44.859 16.397 9.485 77.667c-2.285 3.957.571 8.904 5.141 8.904h70.748c4.57 0 7.425-4.947 5.141-8.904l-35.374-61.27c-2.285-3.957-7.997-3.957-10.282 0z" style="stroke:#71c2cc;animation-play-state:paused"/><g style="animation-play-state:paused"><path fill="#fff" d="m53.4 68.511.6 3.906a4.048 4.048 0 0 1-8 1.23 4.183 4.183 0 0 1 0-1.229l.6-3.906a3.44 3.44 0 0 1 6.8-.001z" style="fill:#1d3f72;animation-play-state:paused"/></g><g style="animation-play-state:paused"><path fill="#fff" d="m54 40.417-1.2 17.28a2.807 2.807 0 0 1-5.6 0L46 40.417a4.01 4.01 0 1 1 8 0z" style="fill:#1d3f72;animation-play-state:paused"/></g></g></svg>